<?xml version="1.0" standalone="no"?>
<!DOCTYPE svg PUBLIC "-//W3C//DTD SVG 20010904//EN"
 "http://www.w3.org/TR/2001/REC-SVG-20010904/DTD/svg10.dtd">
<svg version="1.0" xmlns="http://www.w3.org/2000/svg"
 width="1024.000000pt" height="1024.000000pt" viewBox="0 0 1024.000000 1024.000000"
 preserveAspectRatio="xMidYMid meet">
<metadata>
Created by potrace 1.14, written by Peter Selinger 2001-2017
</metadata>
<g transform="translate(0.000000,1024.000000) scale(0.100000,-0.100000)"
fill="#000000" stroke="none">
<path d="M0 5120 l0 -5120 5120 0 5120 0 0 5120 0 5120 -5120 0 -5120 0 0
-5120z m4620 3017 c36 1 85 2 110 3 25 1 108 2 184 2 118 -1 149 -5 203 -23
58 -21 69 -22 121 -11 32 7 74 12 93 12 49 -1 166 -44 208 -78 46 -37 75 -52
99 -52 10 0 52 -17 93 -39 47 -24 94 -41 129 -45 30 -4 90 -16 132 -28 72 -20
83 -21 176 -8 115 15 178 8 224 -25 86 -62 187 -121 238 -140 73 -27 77 -30
101 -78 33 -66 130 -219 158 -251 14 -15 71 -60 126 -99 55 -39 111 -81 125
-93 14 -13 50 -34 81 -48 65 -28 81 -45 193 -212 19 -28 42 -54 51 -58 8 -3
34 -35 56 -71 23 -35 56 -74 75 -86 19 -11 46 -37 61 -57 14 -21 58 -69 97
-107 39 -39 90 -93 113 -122 24 -28 70 -71 104 -95 34 -23 70 -54 81 -68 25
-35 56 -163 56 -235 0 -40 9 -83 27 -129 17 -46 27 -94 30 -145 2 -45 11 -97
24 -128 11 -28 27 -79 36 -113 9 -34 29 -86 46 -114 19 -34 29 -67 29 -93 0
-22 7 -57 15 -76 31 -75 14 -125 -75 -223 -48 -52 -58 -71 -81 -157 -11 -38
-33 -95 -49 -126 -35 -65 -39 -131 -15 -215 14 -47 14 -57 0 -95 -8 -23 -18
-72 -21 -109 -4 -37 -15 -83 -24 -102 -10 -19 -21 -50 -25 -69 -4 -18 -22 -50
-39 -70 -18 -20 -46 -58 -61 -86 -16 -27 -43 -71 -61 -97 -18 -26 -40 -71 -49
-100 -10 -29 -37 -89 -61 -133 -24 -45 -52 -117 -63 -165 -24 -97 -38 -119
-108 -175 -28 -22 -69 -69 -92 -103 -34 -51 -52 -68 -89 -83 -107 -44 -132
-61 -168 -117 -31 -45 -47 -59 -100 -83 -54 -25 -71 -40 -121 -105 -105 -138
-113 -147 -171 -205 -50 -50 -73 -64 -167 -102 -61 -24 -130 -49 -154 -56 -34
-10 -63 -32 -125 -96 -45 -45 -94 -91 -111 -101 -48 -30 -215 -154 -271 -201
-70 -59 -142 -89 -258 -108 l-100 -16 -77 40 c-90 47 -139 52 -209 20 -55 -25
-115 -27 -157 -6 -43 22 -81 21 -145 -4 -61 -24 -136 -21 -273 12 -44 10 -98
19 -121 19 -44 0 -95 28 -175 98 -86 74 -176 142 -203 152 -15 5 -63 10 -106
10 -74 0 -84 3 -172 47 -83 43 -100 48 -159 48 -60 0 -71 4 -124 40 -33 22
-84 64 -114 93 -47 44 -69 56 -141 79 -47 14 -117 29 -157 32 -50 5 -81 13
-100 27 -15 12 -44 29 -63 39 -47 23 -137 111 -160 156 -25 48 -90 103 -165
141 -74 38 -197 155 -274 261 -31 43 -66 91 -78 108 -12 17 -29 65 -38 107 -9
42 -28 113 -43 157 -25 73 -34 87 -104 157 -43 42 -78 83 -78 91 0 8 -13 32
-28 53 -48 68 -109 198 -121 260 -7 32 -21 94 -33 136 -21 76 -21 78 -3 163
21 103 17 189 -15 260 -38 86 -41 113 -20 190 10 39 23 117 29 174 8 75 19
121 37 160 54 115 94 261 94 344 0 67 4 84 30 130 22 39 30 67 30 101 0 61 8
76 94 166 40 41 78 89 85 107 7 17 39 51 72 77 70 54 82 81 73 152 -6 50 1 90
61 354 8 36 15 99 15 141 0 72 3 82 54 185 46 94 64 119 129 180 67 64 76 77
87 125 13 62 94 173 138 190 31 12 131 104 186 172 88 109 221 176 376 188
128 11 211 31 253 63 58 45 175 58 278 31 47 -12 64 -13 82 -4 32 18 103 75
175 142 l63 60 57 -8 c31 -5 86 -8 122 -8z"/>
</g>
</svg>
